<?xml version="1.0" encoding="UTF-8"?>
<svg id="Camada_2" data-name="Camada 2" xmlns="http://www.w3.org/2000/svg" viewBox="0 0 430.68 191">
  <defs>
    <style>
      .cls-1 {
        letter-spacing: .62em;
      }

      .cls-2 {
        letter-spacing: .6em;
      }

      .cls-3 {
        font-family: MontserratRoman-ExtraLight, Montserrat;
        font-size: 25.89px;
        font-variation-settings: 'wght' 200;
        font-weight: 200;
      }
    </style>
  </defs>
  <g id="Camada_2-2" data-name="Camada 2">
    <text class="cls-3" transform="translate(28.11 184.29)"><tspan class="cls-2" x="0" y="0">W</tspan><tspan class="cls-1" x="43.84" y="0">EB DESIGNER</tspan></text>
  </g>
  <g id="Camada_5" data-name="Camada 5">
    <g>
      <path d="m373.36,88.26c0-4.09-.94-7.47-2.83-10.16-1.89-2.68-4.45-4.7-7.67-6.04-3.23-1.34-6.91-2.01-11.05-2.01h-18.18v-3.57h18.18c4.14,0,7.82-.61,11.05-1.83,3.23-1.22,5.79-3.11,7.67-5.67,1.89-2.56,2.83-5.89,2.83-9.98h4.25v39.26h-4.25Z"/>
      <path d="m32.95,74.23v-2.29h27.46c5.86,0,10.83-1.31,14.92-3.93,4.09-2.62,7.21-6.45,9.38-11.49,2.17-5.04,3.25-11.18,3.25-18.41s-1.08-13.4-3.25-18.51c-2.17-5.11-5.29-9.01-9.38-11.69-4.09-2.69-9.06-4.03-14.92-4.03H0V0h60.4c9.21,0,17.25,1.38,24.12,4.13,6.86,2.75,12.19,6.95,15.97,12.59,3.78,5.64,5.67,12.77,5.67,21.39,0,8.62-1.77,15.59-5.31,20.9-3.54,5.31-8.71,9.17-15.51,11.59-6.8,2.42-15.12,3.63-24.94,3.63h-27.46Z"/>
      <rect x="23.61" y="2" width="17.5" height="139"/>
      <path d="m414.37,98.87c0,7.97-1.18,14.85-3.53,20.62-2.35,5.78-6.36,10.23-12.01,13.37-5.65,3.14-13.44,4.71-23.36,4.71h-34.66V3.67h36.95c8.48,0,15.23,1.51,20.27,4.52,5.03,3.01,8.66,7.16,10.87,12.43,2.21,5.27,3.31,11.27,3.31,17.98h4.24V0h-96.31v140.99l98.48.25v-42.37h-4.24Z"/>
      <polygon points="270.19 141.07 219.42 0 236.96 0 279.23 116.1 318.77 0 322.61 0 274.67 141.07 270.19 141.07"/>
      <path d="m121.29,136.43c.73-.56,1.4-1.29,1.4-1.29.39-.43.7-.83.92-1.14l1,7c-2.3.09-4,0-7,0h-9.84c-5.31,0-9.44-.92-12.4-2.75-2.96-1.84-5.11-4.31-6.45-7.43-1.34-3.12-2.18-6.61-2.52-10.49-.34-3.87-.54-7.88-.6-12.02-.06-4.14-.31-8.14-.73-12.02-.43-3.88-1.37-7.37-2.84-10.49-1.46-3.12-3.8-5.59-7-7.43s-7.61-2.75-13.22-2.75h-26.54v-1.84h30.2c8.72,0,15.66,1.15,20.82,3.45,5.16,2.3,9.04,5.33,11.67,9.09,2.62,3.76,4.39,7.88,5.31,12.37.92,4.49,1.42,8.99,1.51,13.51.13,6.32-.02,7.43.46,12.41.48,4.93.74,7.42,2.01,9.05,3.95,5.03,12.44,3.85,13.84,2.78Z"/>
      <polyline points="200.29 141 220.33 141 173.11 0 169.35 0 162.22 20.96"/>
      <rect x="219.61" y="0" width="4" height="141"/>
      <path d="m186.55,89.95h-31.36s-18.01.87-26.3,15.32c-8.29,14.45-8.29,35.72-8.29,35.72l4.08.04s-1.95-46.84,33.14-47.9h29.78v-3.19h-1.06Z"/>
    </g>
  </g>
</svg>